<?xml version="1.0" encoding="UTF-8" standalone="no"?>
<svg
   width="1093.2267mm"
   height="612.91608mm"
   viewBox="-640 -100 1093.2267 612.91609"
   version="1.1"
   id="svg6"
   sodipodi:docname="WheatForWoodMark.svg"
   inkscape:version="1.2.2 (732a01da63, 2022-12-09)"
   xmlns:inkscape="http://www.inkscape.org/namespaces/inkscape"
   xmlns:sodipodi="http://sodipodi.sourceforge.net/DTD/sodipodi-0.dtd"
   xmlns="http://www.w3.org/2000/svg"
   xmlns:svg="http://www.w3.org/2000/svg"
   xmlns:rdf="http://www.w3.org/1999/02/22-rdf-syntax-ns#"
   xmlns:cc="http://creativecommons.org/ns#"
   xmlns:dc="http://purl.org/dc/elements/1.1/">
  <defs
     id="defs10">
    <inkscape:path-effect
       effect="bend_path"
       id="path-effect344"
       is_visible="true"
       lpeversion="1"
       bendpath="M 64.504967,793.51861 C 360.18375,859.4898 665.84612,610.72876 781.32554,324.88798"
       prop_scale="1"
       scale_y_rel="false"
       vertical="false"
       hide_knot="false"
       bendpath-nodetypes="cc" />
    <inkscape:path-effect
       effect="bend_path"
       id="path-effect344-9"
       is_visible="true"
       lpeversion="1"
       bendpath="M 64.504967,793.51861 C 360.18375,859.4898 665.84612,610.72876 781.32554,324.88798"
       prop_scale="1"
       scale_y_rel="false"
       vertical="false"
       hide_knot="false"
       bendpath-nodetypes="cc" />
  </defs>
  <sodipodi:namedview
     id="namedview8"
     pagecolor="#ffffff"
     bordercolor="#000000"
     borderopacity="0.25"
     inkscape:showpageshadow="2"
     inkscape:pageopacity="0.0"
     inkscape:pagecheckerboard="0"
     inkscape:deskcolor="#d1d1d1"
     inkscape:document-units="mm"
     showgrid="false"
     inkscape:zoom="0.10106129"
     inkscape:cx="697.59648"
     inkscape:cy="1325.9281"
     inkscape:window-width="1920"
     inkscape:window-height="1009"
     inkscape:window-x="-8"
     inkscape:window-y="-8"
     inkscape:window-maximized="1"
     inkscape:current-layer="svg6" />
  <title
     id="title2">OpenSCAD Model</title>
  <path
     d="m 688.57948,287.49609 c -25.54579,63.48319 -61.48767,123.5942 -104.77151,178.3757 -17.32704,21.80111 -35.74677,42.65674 -55.18293,62.34703 1.33497,8.1394 2.54594,16.33601 3.62901,24.58714 23.90109,-23.27124 46.35209,-48.22788 67.22918,-74.51297 44.40552,-56.16536 81.30332,-117.91888 107.63927,-183.3032 z M 585.96393,510.30417 c -16.54014,19.16625 -33.95116,37.52197 -52.18169,54.91904 2.38549,20.76246 3.95944,41.85732 4.66102,63.24274 20.34018,-17.51442 39.79688,-36.09264 58.31873,-55.58656 -2.82408,-21.23104 -6.44371,-42.1034 -10.79806,-62.57522 z m 55.51626,-72.26863 c -10.81305,15.86809 -22.21856,31.36966 -34.15933,46.46805 -3.79438,4.77879 -7.64054,9.5144 -11.53776,14.20475 4.73277,20.38846 8.74618,41.19107 11.9794,62.366 13.44103,-14.70649 26.36349,-29.89914 38.74651,-45.51775 4.33182,-5.46952 8.59781,-10.99136 12.7957,-16.56408 -5.21825,-20.77857 -11.16699,-41.12082 -17.82452,-60.95697 z m 46.60317,-77.83791 c -11.5867,22.30418 -24.35785,44.07307 -38.18279,65.22294 7.0444,19.69245 13.38361,39.91101 18.99594,60.58588 15.78024,-21.79254 30.52133,-44.32506 44.09262,-67.51383 -7.6003,-20.01126 -15.90945,-39.46619 -24.90577,-58.29499 z m 37.96201,75.50406 c -1.44632,-4.0747 -2.92127,-8.12786 -4.42467,-12.15893 -20.04734,34.25936 -42.60736,67.08757 -67.27406,98.22443 -48.65264,61.38203 -105.59398,116.28475 -169.60013,161.1795 -61.54894,43.14253 -129.80308,77.12177 -202.22676,95.69095 l -4e-5,10e-6 c -35.13202,9.02144 -71.1885,14.3936 -107.34186,15.4134 -36.44836,1.03266 -73.02579,-2.36845 -108.574024,-10.31005 l -4.358947,19.51923 c 37.20943,8.30632 75.428971,11.86501 113.500351,10.78277 37.75013,-1.07761 75.27657,-6.65683 111.75177,-16.03458 75.14027,-19.34681 145.56434,-54.32558 208.73652,-98.68954 l 3e-5,-3e-5 C 561.93271,653.21011 620.27013,596.9904 670.0219,534.18839 c 25.23916,-31.84313 48.32847,-65.44499 68.86193,-100.54537 -4.28429,0.72195 -8.56392,1.40804 -12.83846,2.05867 z M 625.766,600.4412 c -19.42079,20.4341 -39.84815,39.92763 -61.23073,58.33247 21.56296,3.42579 43.53861,6.0229 65.85329,7.78651 21.62786,-20.60063 42.18515,-42.24699 61.62052,-64.79096 -22.34211,0.38329 -44.44769,-0.061 -66.24308,-1.32802 z m 65.49133,-77.37198 c -4.39586,5.8322 -8.86256,11.60928 -13.3978,17.32977 -12.94891,16.3497 -26.47663,32.25979 -40.56227,47.67006 21.8142,0.84559 43.91809,0.86962 66.23799,0.0673 4.56999,-5.51183 9.07438,-11.07396 13.51243,-16.68431 14.02579,-17.67078 27.4345,-35.87241 40.16894,-54.56822 -22.16403,2.92488 -44.16858,4.9704 -65.95929,6.18544 z m 56.25807,-84.37607 c -14.23753,24.34141 -29.68542,47.9633 -46.213,70.78194 21.76625,-1.63072 43.72966,-4.10356 65.83588,-7.46738 16.29871,-24.96268 31.4017,-50.76582 45.17833,-77.3257 -21.67799,5.60323 -43.29651,10.25733 -64.80121,14.01114 z m 107.95129,-83.75381 c -32.65728,80.59344 -77.20245,155.48697 -130.58138,222.72326 -24.97424,31.57821 -52.03812,61.64909 -81.06785,89.85569 8.97894,0.57201 18.00976,1.0105 27.08776,1.31517 24.72699,-24.99596 47.97086,-51.31914 69.65535,-78.74966 54.50061,-68.62015 100.0017,-145.15618 133.44914,-227.65077 z"
     stroke="#000000"
     fill="#d3d3d3"
     stroke-width="0.5"
     id="path4"
     inkscape:path-effect="#path-effect344"
     inkscape:original-d="m 791.79773,625.44936 h -400 l -20,20 h 420 z m -330,30 h -100 l -50,50 h 100 z m 120,0 h -100 l -50,50 h 100 z m 120,0 h -100 l -50,50 h 100 z m -60,70 10,-10 h -980 v 20 h 980 z m -230,20 h -100 l 50,50 h 100 z m 120,0 h -100 l 50,50 h 100 z m 120,0 h -100 l 50,50 h 100 z m 140,60 h -420 l 20,20 h 400 z"
     class="UnoptimicedTransforms"
     transform="translate(-421.10873,-301.566)" />
  <path
     d="m 688.57948,287.49609 c -25.54579,63.48319 -61.48767,123.5942 -104.77151,178.3757 -17.32704,21.80111 -35.74677,42.65674 -55.18293,62.34703 1.33497,8.1394 2.54594,16.33601 3.62901,24.58714 23.90109,-23.27124 46.35209,-48.22788 67.22918,-74.51297 44.40552,-56.16536 81.30332,-117.91888 107.63927,-183.3032 z M 585.96393,510.30417 c -16.54014,19.16625 -33.95116,37.52197 -52.18169,54.91904 2.38549,20.76246 3.95944,41.85732 4.66102,63.24274 20.34018,-17.51442 39.79688,-36.09264 58.31873,-55.58656 -2.82408,-21.23104 -6.44371,-42.1034 -10.79806,-62.57522 z m 55.51626,-72.26863 c -10.81305,15.86809 -22.21856,31.36966 -34.15933,46.46805 -3.79438,4.77879 -7.64054,9.5144 -11.53776,14.20475 4.73277,20.38846 8.74618,41.19107 11.9794,62.366 13.44103,-14.70649 26.36349,-29.89914 38.74651,-45.51775 4.33182,-5.46952 8.59781,-10.99136 12.7957,-16.56408 -5.21825,-20.77857 -11.16699,-41.12082 -17.82452,-60.95697 z m 46.60317,-77.83791 c -11.5867,22.30418 -24.35785,44.07307 -38.18279,65.22294 7.0444,19.69245 13.38361,39.91101 18.99594,60.58588 15.78024,-21.79254 30.52133,-44.32506 44.09262,-67.51383 -7.6003,-20.01126 -15.90945,-39.46619 -24.90577,-58.29499 z m 37.96201,75.50406 c -1.44632,-4.0747 -2.92127,-8.12786 -4.42467,-12.15893 -20.04734,34.25936 -42.60736,67.08757 -67.27406,98.22443 -48.65264,61.38203 -105.59398,116.28475 -169.60013,161.1795 -61.54894,43.14253 -129.80308,77.12177 -202.22676,95.69095 l -4e-5,10e-6 c -35.13202,9.02144 -71.1885,14.3936 -107.34186,15.4134 -36.44836,1.03266 -73.02579,-2.36845 -108.574024,-10.31005 l -4.358947,19.51923 c 37.20943,8.30632 75.428971,11.86501 113.500351,10.78277 37.75013,-1.07761 75.27657,-6.65683 111.75177,-16.03458 75.14027,-19.34681 145.56434,-54.32558 208.73652,-98.68954 l 3e-5,-3e-5 C 561.93271,653.21011 620.27013,596.9904 670.0219,534.18839 c 25.23916,-31.84313 48.32847,-65.44499 68.86193,-100.54537 -4.28429,0.72195 -8.56392,1.40804 -12.83846,2.05867 z M 625.766,600.4412 c -19.42079,20.4341 -39.84815,39.92763 -61.23073,58.33247 21.56296,3.42579 43.53861,6.0229 65.85329,7.78651 21.62786,-20.60063 42.18515,-42.24699 61.62052,-64.79096 -22.34211,0.38329 -44.44769,-0.061 -66.24308,-1.32802 z m 65.49133,-77.37198 c -4.39586,5.8322 -8.86256,11.60928 -13.3978,17.32977 -12.94891,16.3497 -26.47663,32.25979 -40.56227,47.67006 21.8142,0.84559 43.91809,0.86962 66.23799,0.0673 4.56999,-5.51183 9.07438,-11.07396 13.51243,-16.68431 14.02579,-17.67078 27.4345,-35.87241 40.16894,-54.56822 -22.16403,2.92488 -44.16858,4.9704 -65.95929,6.18544 z m 56.25807,-84.37607 c -14.23753,24.34141 -29.68542,47.9633 -46.213,70.78194 21.76625,-1.63072 43.72966,-4.10356 65.83588,-7.46738 16.29871,-24.96268 31.4017,-50.76582 45.17833,-77.3257 -21.67799,5.60323 -43.29651,10.25733 -64.80121,14.01114 z m 107.95129,-83.75381 c -32.65728,80.59344 -77.20245,155.48697 -130.58138,222.72326 -24.97424,31.57821 -52.03812,61.64909 -81.06785,89.85569 8.97894,0.57201 18.00976,1.0105 27.08776,1.31517 24.72699,-24.99596 47.97086,-51.31914 69.65535,-78.74966 54.50061,-68.62015 100.0017,-145.15618 133.44914,-227.65077 z"
     stroke="#000000"
     fill="#d3d3d3"
     stroke-width="0.5"
     id="path4-3"
     inkscape:path-effect="#path-effect344-9"
     inkscape:original-d="m 791.79773,625.44936 h -400 l -20,20 h 420 z m -330,30 h -100 l -50,50 h 100 z m 120,0 h -100 l -50,50 h 100 z m 120,0 h -100 l -50,50 h 100 z m -60,70 10,-10 h -980 v 20 h 980 z m -230,20 h -100 l 50,50 h 100 z m 120,0 h -100 l 50,50 h 100 z m 120,0 h -100 l 50,50 h 100 z m 140,60 h -420 l 20,20 h 400 z"
     class="UnoptimicedTransforms"
     transform="matrix(-1,0,0,1,234.33543,-308.35244)" />
  <path
     d="m -56.2043,434.01164 20.61671,-9.17579 18.25766,-13.26712 15.10066,-16.7701 11.28406,-19.54445 6.97415,-21.46595 2.35872,-22.44291 V 7.493858 l -2.35872,-22.44399 -6.97415,-21.46325 -11.28406,-19.54445 -15.10066,-16.77119 -18.25766,-13.26495 -20.61671,-9.17903 -22.07464,-4.69206 h -22.5678 l -22.07464,4.69206 -20.61671,9.17903 -18.25766,13.26495 -15.10066,16.77119 -11.28406,19.54445 -6.97415,21.46325 -2.35872,22.44399 V 331.34532 l 2.35872,22.4429 6.97415,21.46596 11.28406,19.54444 15.10066,16.7701 18.25766,13.26713 20.61671,9.17578 22.07464,4.69045 h 22.5678 z m -43.514033,-329.89454 -19.867147,-4.223032 -18.55508,-8.26091 -16.43169,-11.93879 -13.59097,-15.09417 -10.15543,-17.58945 -6.27679,-19.3172 -2.12284,-20.19969 2.12284,-20.1997 6.27679,-19.31721 10.15543,-17.58944 13.59097,-15.09419 16.43169,-11.93878 18.55508,-8.2609 19.867147,-4.22302 h 20.310993 l 19.86715,4.22302 18.55507,8.2609 16.43169,11.93878 13.59096,15.09419 10.15544001,17.58944 6.27678999,19.31721 2.12284,20.1997 -2.12284,20.19969 -6.27678999,19.3172 -10.15544001,17.58945 -13.59096,15.09417 -16.43169,11.93879 -18.55507,8.26091 -19.86715,4.223032 z m 36.842313,-14.489662 16.49338,-7.34333 14.60623,-10.61207 12.08075,-13.41663 9.02681,-15.63554 5.57943,-17.17061 1.88698,-17.9554 -1.88698,-17.95541 -5.57943,-17.17061 -9.02681,-15.63554 -12.08075,-13.41663 -14.60623,-10.61207 -16.49338,-7.34334 -17.659728,-3.75343 h -18.05418 l -17.659732,3.75343 -16.49338,7.34334 -14.60623,10.61207 -12.08075,13.41663 -9.02681,15.63554 -5.57943,17.17061 -1.88698,17.95541 1.88698,17.9554 5.57943,17.17061 9.02681,15.63554 12.08075,13.41663 14.60623,10.61207 16.49338,7.34333 17.659732,3.75343 h 18.05418 z m -34.585554,-6.98223 -15.452246,-3.2844 -14.4317,-6.42521 -12.78042,-9.2859 -10.57035,-11.73962 -7.89873,-13.6811 -4.88206,-15.02402 -1.6511,-15.7111 1.6511,-15.71111 4.88206,-15.02402 7.89873,-13.6811 10.57035,-11.73962 12.78042,-9.28589 14.4317,-6.42522 15.452246,-3.2844 h 15.797472 l 15.452252,3.2844 14.43169,6.42522 12.78042,9.28589 10.57034,11.73962 7.89874,13.6811 4.88206,15.02402 1.6511,15.71111 -1.6511,15.7111 -4.88206,15.02402 -7.89874,13.6811 -10.57034,11.73962 -12.78042,9.2859 -14.43169,6.42521 -15.452252,3.2844 z m 27.913844,-13.55104 12.37004,-5.50763 10.95465,-7.95918 9.06045,-10.0626 6.77012,-11.72667 4.18469,-12.87796 1.41524,-13.46627 -1.41524,-13.46628 -4.18469,-12.87796 -6.77012,-11.72666 -9.06045,-10.06261 -10.95465,-7.95919 -12.37004,-5.50764 -13.244778,-2.81534 h -13.54066 l -13.244772,2.81534 -12.37005,5.50764 -10.95465,7.95919 -9.06045,10.06261 -6.77012,11.72666 -4.18469,12.87796 -1.41524,13.46628 1.41524,13.46627 4.18469,12.87796 6.77012,11.72667 9.06045,10.0626 10.95465,7.95918 12.37005,5.50763 13.244772,2.81536 h 13.54066 z m -25.657033,-7.92086 -11.037337,-2.34576 -10.30836,-4.58952 -9.1289,-6.63301 -7.55038,-8.38506 -5.64192,-9.77222 -3.48696,-10.7319 -1.17947,-11.22199 1.17947,-11.22199 3.48696,-10.73191 5.64192,-9.77221 7.55038,-8.38505 9.1289,-6.63302 10.30836,-4.58951 11.037337,-2.34577 h 11.28385 l 11.037343,2.34577 10.30835,4.58951 9.1289,6.63302 7.55038,8.38505 5.64192,9.77221 3.48696,10.73191 1.17947,11.22199 -1.17947,11.22199 -3.48696,10.7319 -5.64192,9.77222 -7.55038,8.38506 -9.1289,6.63301 -10.30835,4.58952 -11.037343,2.34576 z m 18.985363,-12.61239 8.24666,-3.67193 7.30307,-5.30578 6.04036,-6.70858 4.51352,-7.81777 2.78955,-8.5853 0.9436,-8.9777 -0.9436,-8.97771 -2.78955,-8.5853 -4.51352,-7.81778 -6.04036,-6.70858 -7.30307,-5.30576 -8.24666,-3.67195 -8.829878,-1.87671 h -9.02712 l -8.829882,1.87671 -8.24666,3.67195 -7.30307,5.30576 -6.04036,6.70858 -4.51352,7.81778 -2.78955,8.5853 -0.9436,8.97771 0.9436,8.9777 2.78955,8.5853 4.51352,7.81777 6.04036,6.70858 7.30307,5.30578 8.24666,3.67193 8.829882,1.87671 h 9.02712 z m -16.728603,-8.8595 -6.622377,-1.40767 -6.18503,-2.75328 -5.4773,-3.97959 -4.53026,-5.03158 -3.38515,-5.86333 -2.09215,-6.43871 -0.70772,-6.7334 0.70772,-6.73342 2.09215,-6.43871 3.38515,-5.86333 4.53026,-5.03157 5.4773,-3.9796 6.18503,-2.75327 6.622377,-1.40768 h 6.77033 l 6.622373,1.40768 6.18503,2.75327 5.47732,3.9796 4.53024,5.03157 3.38517,5.86333 2.09213,6.43871 0.70772,6.73342 -0.70772,6.7334 -2.09213,6.43871 -3.38517,5.86333 -4.53024,5.03158 -5.47732,3.97959 -6.18503,2.75328 -6.622373,1.40767 z m 10.056891,-11.6743 4.123322,-1.83571 3.65153,-2.65287 3.0202,-3.35457 2.25676,-3.90888 1.39476,-4.29265 0.4718,-4.48858 -0.4718,-4.48858 -1.39476,-4.29266 -2.25676,-3.90889 -3.0202,-3.35456 -3.65153,-2.65289 -4.123322,-1.83569 -4.414946,-0.93862 h -4.51356 l -4.414935,0.93862 -4.123337,1.83569 -3.65153,2.65289 -3.02018,3.35456 -2.25676,3.90889 -1.39477,4.29266 -0.4718,4.48858 0.4718,4.48858 1.39477,4.29265 2.25676,3.90888 3.02018,3.35457 3.65153,2.65287 4.123337,1.83571 4.414935,0.93863 h 4.51356 z m -7.800111,-9.79758 -2.207462,-0.46906 -2.061673,-0.91812 -1.825775,-1.32617 -1.510062,-1.677 -1.128405,-1.95445 -0.69736,-2.1466 -0.23593,-2.24428 0.23593,-2.24429 0.69736,-2.1466 1.128405,-1.95445 1.510062,-1.67701 1.825775,-1.32617 2.061673,-0.91812 2.207462,-0.46904 h 2.25677 l 2.207462,0.46904 2.061673,0.91812 1.825775,1.32617 1.510062,1.67701 1.128401,1.95445 0.69736,2.1466 0.23593,2.24429 -0.23593,2.24428 -0.69736,2.1466 -1.128401,1.95445 -1.510062,1.677 -1.825775,1.32617 -2.061673,0.91812 -2.207462,0.46906 z m -93.904217,333.313322 -2.12284,-20.19754 V 53.934158 l 5.39752,9.34851 V 361.62544 Z M 2.19508,63.282668 7.5926,53.934158 V 331.34532 l -2.12284,20.19754 -3.27468,10.08258 z m -21.5901,25.93456 2.06509,-1.50052 8.72997,-9.69557 V 384.35981 l -2.36251,4.09132 -8.43255,9.36471 z m -148.76818,299.233902 -2.36252,-4.09132 V 78.021138 l 8.72997,9.69557 2.06509,1.50052 V 397.81584 Z m 127.17808,-285.06648 5.39753,-2.40297 5.39753,-3.921312 V 407.63933 l -10.79506,7.84261 z m -107.9505,304.25468 V 97.060368 l 5.39753,3.921312 5.39753,2.40297 v 312.09729 z m 86.3604,-296.12439 6.37092,-1.35424 4.42414,-1.96955 v 312.09999 l -7.76003,3.45442 -3.03503,0.6477 z m -57.01025,312.23062 -7.76005,-3.45442 V 108.19115 l 4.42414,1.96955 6.37092,1.35424 v 312.87832 z m 19.867137,4.22085 -6.037077,-1.27921 V 113.80943 l 4.90867,1.04334 h 5.886382 v 313.11364 z m 15.553015,0 V 114.85277 h 5.886378 l 4.90867,-1.04334 V 426.6872 l -6.03707,1.27921 z"
     stroke="#000000"
     fill="#d3d3d3"
     stroke-width="0.269876"
     id="path312" />
  <metadata
     id="metadata342">
    <rdf:RDF>
      <cc:Work
         rdf:about="">
        <dc:title>OpenSCAD Model</dc:title>
      </cc:Work>
    </rdf:RDF>
  </metadata>
</svg>
